<?xml version="1.0" encoding="UTF-8" standalone="no"?>
<!-- Created with Inkscape (http://www.inkscape.org/) -->

<svg
   xmlns:dc="http://purl.org/dc/elements/1.1/"
   xmlns:cc="http://creativecommons.org/ns#"
   xmlns:rdf="http://www.w3.org/1999/02/22-rdf-syntax-ns#"
   xmlns:svg="http://www.w3.org/2000/svg"
   xmlns="http://www.w3.org/2000/svg"
   xmlns:sodipodi="http://sodipodi.sourceforge.net/DTD/sodipodi-0.dtd"
   xmlns:inkscape="http://www.inkscape.org/namespaces/inkscape"
   width="103.31119mm"
   height="76.420593mm"
   viewBox="0 0 103.31119 76.420593"
   version="1.1"
   id="svg8"
   inkscape:version="0.92.2 (5c3e80d, 2017-08-06)"
   sodipodi:docname="StetigkeitH.svg">
  <defs
     id="defs2" />
  <sodipodi:namedview
     id="base"
     pagecolor="#ffffff"
     bordercolor="#666666"
     borderopacity="1.0"
     inkscape:pageopacity="0.0"
     inkscape:pageshadow="2"
     inkscape:zoom="1.4"
     inkscape:cx="426.8905"
     inkscape:cy="-76.656994"
     inkscape:document-units="mm"
     inkscape:current-layer="layer1"
     showgrid="false"
     inkscape:snap-grids="true"
     inkscape:window-width="2880"
     inkscape:window-height="1795"
     inkscape:window-x="-13"
     inkscape:window-y="-13"
     inkscape:window-maximized="1"
     inkscape:snap-global="false"
     fit-margin-top="0"
     fit-margin-left="0"
     fit-margin-right="0"
     fit-margin-bottom="0">
    <inkscape:grid
       type="xygrid"
       id="grid1496"
       originx="-49.09405"
       originy="-380.36158" />
  </sodipodi:namedview>
  <metadata
     id="metadata5">
    <rdf:RDF>
      <cc:Work
         rdf:about="">
        <dc:format>image/svg+xml</dc:format>
        <dc:type
           rdf:resource="http://purl.org/dc/dcmitype/StillImage" />
        <dc:title></dc:title>
      </cc:Work>
    </rdf:RDF>
  </metadata>
  <g
     inkscape:label="Ebene 1"
     inkscape:groupmode="layer"
     id="layer1"
     transform="translate(-15.874787,-190.30735)">
    <path
       style="fill:none;stroke:#ff00ff;stroke-width:0.69999999;stroke-linecap:butt;stroke-linejoin:miter;stroke-miterlimit:4;stroke-dasharray:none;stroke-opacity:1"
       d="m 49.892857,204.77381 c -5.354406,0.47432 -11.516025,-0.31065 -15.875,2.83482 -2.034419,1.46805 -4.289785,4.20514 -3.590774,6.61458 1.045059,3.60225 6.225608,4.43397 9.827382,5.48066 9.573454,2.78209 20.190323,4.12703 29.860117,1.70089 5.155808,-1.29359 13.68529,-3.00044 13.607143,-8.31548 -0.08213,-5.58619 -9.152451,-6.88152 -14.552083,-8.31547 -6.210336,-1.64924 -12.876254,-0.56699 -19.276785,0 z"
       id="path1813"
       inkscape:connector-curvature="0"
       sodipodi:nodetypes="ssssssss" />
    <path
       style="fill:none;stroke:#ff0000;stroke-width:0.69999999;stroke-linecap:butt;stroke-linejoin:miter;stroke-miterlimit:4;stroke-dasharray:none;stroke-opacity:1"
       d="m 70.114582,205.52976 c -5.70983,-0.74741 -13.310513,-1.39009 -17.008927,3.02381 -2.913056,3.47661 -1.467204,9.31529 0,13.60714 1.59781,4.6739 4.6872,9.44199 9.071428,11.71726 6.156971,3.19527 14.591498,-2.17161 20.78869,0.94494 2.760017,1.388 2.977303,6.06701 5.858632,7.18155 5.168322,1.99918 13.562915,2.27807 16.441965,-2.45684 3.83993,-6.31517 -2.2407,-15.48092 -7.181549,-20.97768 -6.876768,-7.6505 -17.770365,-11.70503 -27.970239,-13.04018 z"
       id="path1815"
       inkscape:connector-curvature="0"
       sodipodi:nodetypes="sssssssss" />
    <text
       xml:space="preserve"
       style="font-style:normal;font-weight:normal;font-size:10.58333302px;line-height:1.25;font-family:sans-serif;letter-spacing:0px;word-spacing:0px;fill:#ff00ff;fill-opacity:1;stroke:none;stroke-width:0.26458332"
       x="24.190477"
       y="198.34821"
       id="text1819"><tspan
         sodipodi:role="line"
         id="tspan1817"
         x="24.190477"
         y="198.34821"
         style="fill:#ff00ff;stroke-width:0.26458332">supp f<tspan
   style="font-size:64.99999762%;baseline-shift:sub;fill:#ff00ff"
   id="tspan1821">1</tspan></tspan></text>
    <text
       xml:space="preserve"
       style="font-style:normal;font-weight:normal;font-size:10.58333302px;line-height:1.25;font-family:sans-serif;letter-spacing:0px;word-spacing:0px;fill:#ff0000;fill-opacity:1;stroke:none;stroke-width:0.26458332"
       x="66.712799"
       y="253.72173"
       id="text1825"><tspan
         sodipodi:role="line"
         id="tspan1823"
         x="66.712799"
         y="253.72173"
         style="fill:#ff0000;stroke-width:0.26458332">supp f<tspan
   style="font-size:64.99999762%;baseline-shift:sub;fill:#ff0000"
   id="tspan1827">2</tspan></tspan></text>
    <path
       style="fill:none;stroke:#a05a2c;stroke-width:0.69999999;stroke-linecap:butt;stroke-linejoin:miter;stroke-miterlimit:4;stroke-dasharray:none;stroke-opacity:1"
       d="m 55.37351,201.18303 c -8.585427,-0.11513 -18.347412,-2.72937 -25.702379,1.7009 -3.803884,2.29127 -6.755558,6.90495 -6.99256,11.33928 -0.421075,7.87837 5.123371,15.32081 10.205356,21.35566 5.471869,6.49783 14.345772,9.20464 20.788691,14.74107 3.852074,3.3101 5.961275,8.85612 10.583333,10.96131 12.17022,5.54312 27.648684,7.04513 40.065479,2.07887 6.04075,-2.41607 11.38534,-7.99384 13.41815,-14.17411 2.57813,-7.83816 0.20072,-16.97332 -3.02381,-24.56845 -1.99545,-4.70013 -5.59509,-8.78779 -9.63839,-11.90625 -5.58156,-4.30486 -12.461794,-6.89304 -19.276787,-8.69346 -9.848402,-2.6018 -20.241714,-2.69823 -30.427083,-2.83482 z"
       id="path1829"
       inkscape:connector-curvature="0"
       sodipodi:nodetypes="ssssssssssss" />
    <text
       xml:space="preserve"
       style="font-style:normal;font-weight:normal;font-size:10.58333302px;line-height:1.25;font-family:sans-serif;letter-spacing:0px;word-spacing:0px;fill:#a05a2c;fill-opacity:1;stroke:none;stroke-width:0.26458332"
       x="15.301179"
       y="261.05225"
       id="text1833"><tspan
         sodipodi:role="line"
         id="tspan1831"
         x="15.301179"
         y="261.05225"
         style="fill:#a05a2c;fill-opacity:1;stroke-width:0.26458332">supp f<tspan
   style="font-size:64.99999762%;baseline-shift:sub;fill:#a05a2c;fill-opacity:1"
   id="tspan1835">δ</tspan></tspan></text>
  </g>
</svg>
